<svg width="512" height="512" xmlns="http://www.w3.org/2000/svg">

 <g>
  <title>background</title>
  <rect fill="none" id="canvas_background" height="402" width="582" y="-1" x="-1"/>
 </g>
 <g>
  <title>Layer 1</title>
  <g id="svg_1">
   <g id="svg_2">
    <path fill="#ffffff" id="svg_3" d="m477.858,8.533l-443.716,0c-18.825,0 -34.142,15.318 -34.142,34.142l0,281.591c0,4.71 3.823,8.533 8.533,8.533l494.933,0c4.71,0 8.533,-3.823 8.533,-8.533l0,-281.591c0.001,-18.824 -15.316,-34.142 -34.141,-34.142zm17.075,307.2l-477.866,0l0,-273.058c0,-9.421 7.663,-17.075 17.075,-17.075l443.716,0c9.412,0 17.075,7.654 17.075,17.075l0,273.058z"/>
   </g>
  </g>
  <g id="svg_4">
   <g id="svg_5">
    <path fill="#ffffff" id="svg_6" d="m503.467,315.733l-494.934,0c-4.71,0 -8.533,3.823 -8.533,8.533l0,42.658c0,18.825 15.317,34.142 34.142,34.142l443.716,0c18.825,0 34.142,-15.317 34.142,-34.142l0,-42.658c0,-4.71 -3.823,-8.533 -8.533,-8.533zm-8.534,51.192c0,9.421 -7.663,17.075 -17.075,17.075l-443.716,0c-9.412,0 -17.075,-7.654 -17.075,-17.075l0,-34.125l477.867,0l0,34.125l-0.001,0z"/>
   </g>
  </g>
  <g id="svg_7">
   <g id="svg_8">
    <path fill="#ffffff" id="svg_9" d="m281.6,349.867l-51.2,0c-4.71,0 -8.533,3.823 -8.533,8.533s3.823,8.533 8.533,8.533l51.2,0c4.71,0 8.533,-3.823 8.533,-8.533s-3.823,-8.533 -8.533,-8.533z"/>
   </g>
  </g>
  <g id="svg_10">
   <g id="svg_11">
    <path fill="#ffffff" id="svg_12" d="m469.333,42.667l-426.666,0c-4.71,0 -8.533,3.823 -8.533,8.533l0,273.067c0,4.71 3.823,8.533 8.533,8.533l426.667,0c4.71,0 8.533,-3.823 8.533,-8.533l0,-273.067c0,-4.71 -3.823,-8.533 -8.534,-8.533zm-8.533,273.066l-409.6,0l0,-256l409.6,0l0,256z"/>
   </g>
  </g>
  <g id="svg_13">
   <g id="svg_14">
    <path fill="#ffffff" id="svg_15" d="m366.933,452.267l-221.866,0c-14.114,0 -25.6,11.486 -25.6,25.6s11.486,25.6 25.6,25.6l221.867,0c14.114,0 25.6,-11.486 25.6,-25.6s-11.487,-25.6 -25.601,-25.6zm0,34.133l-221.866,0c-4.71,0 -8.533,-3.831 -8.533,-8.533s3.823,-8.533 8.533,-8.533l221.867,0c4.71,0 8.533,3.831 8.533,8.533s-3.823,8.533 -8.534,8.533z"/>
   </g>
  </g>
  <g id="svg_16">
   <g id="svg_17">
    <path fill="#ffffff" id="svg_18" d="m349.867,452.267c-28.314,0 -42.667,-20.096 -42.667,-59.733c0,-4.71 -3.823,-8.533 -8.533,-8.533l-85.333,0c-4.71,0 -8.533,3.823 -8.533,8.533c0,39.637 -14.353,59.733 -42.667,59.733c-4.71,0 -8.533,3.823 -8.533,8.533c0,4.71 3.823,8.533 8.533,8.533l187.733,0c4.71,0 8.533,-3.823 8.533,-8.533c0,-4.71 -3.823,-8.533 -8.533,-8.533zm-146.168,0c10.505,-11.639 16.691,-28.971 17.937,-51.2l68.736,0c1.237,22.229 7.424,39.561 17.937,51.2l-104.61,0z"/>
   </g>
  </g>
  <g id="svg_19">
   <g id="svg_20">
    <path fill="#ffffff" id="svg_21" d="m407.757,259.959l-20.599,-20.599l11.46,-11.46c2.125,-2.125 2.978,-5.214 2.244,-8.124c-0.734,-2.91 -2.944,-5.214 -5.82,-6.084l-85.333,-25.6c-3.012,-0.905 -6.263,-0.077 -8.482,2.142c-2.227,2.219 -3.046,5.478 -2.142,8.482l25.6,85.333c0.862,2.884 3.174,5.094 6.084,5.828c2.901,0.717 5.999,-0.12 8.124,-2.244l12.066,-12.075l20.599,20.608c1.596,1.604 3.772,2.5 6.033,2.5s4.437,-0.896 6.033,-2.5l24.132,-24.141c3.337,-3.336 3.337,-8.729 0.001,-12.066zm-30.166,18.108l-18.756,-18.765c-2.176,-2.176 -5.026,-3.26 -7.876,-3.26c-2.859,0 -5.709,1.092 -7.876,3.251l-6.161,6.161l-16.939,-56.465l56.465,16.939l-6.605,6.605c-1.818,1.826 -2.816,4.25 -2.816,6.827c0,2.586 1.007,5.026 2.833,6.835l19.797,19.797l-12.066,12.075z"/>
   </g>
  </g>
  <g id="svg_22">
   <g id="svg_23">
    <path fill="#ffffff" id="svg_24" d="m358.4,76.8l-238.933,0c-4.71,0 -8.533,3.823 -8.533,8.533l0,42.667c0,4.71 3.823,8.533 8.533,8.533l238.933,0c4.71,0 8.533,-3.823 8.533,-8.533l0,-42.667c0,-4.71 -3.823,-8.533 -8.533,-8.533zm-8.533,42.667l-221.867,0l0,-25.6l221.867,0l0,25.6z"/>
   </g>
  </g>
  <g id="svg_25">
   <g id="svg_26">
    <path fill="#ffffff" id="svg_27" d="m221.867,170.667l-68.267,0c-4.71,0 -8.533,3.823 -8.533,8.533l0,34.133c0,4.71 3.823,8.533 8.533,8.533l68.267,0c4.71,0 8.533,-3.823 8.533,-8.533l0,-34.133c0,-4.71 -3.823,-8.533 -8.533,-8.533zm-8.534,34.133l-51.2,0l0,-17.067l51.2,0l0,17.067z"/>
   </g>
  </g>
  <g id="svg_28">
   <g id="svg_29">
    <path fill="#ffffff" id="svg_30" d="m358.4,76.8l-238.933,0c-4.71,0 -8.533,3.823 -8.533,8.533l0,162.133c0,4.71 3.823,8.533 8.533,8.533l203.145,0c2.705,0 5.239,-1.271 6.844,-3.439c1.613,-2.167 2.108,-4.966 1.331,-7.552l-10.803,-36.019l35.968,10.795c2.586,0.777 5.385,0.282 7.543,-1.331c2.167,-1.604 3.439,-4.147 3.439,-6.844l0,-126.276c-0.001,-4.71 -3.824,-8.533 -8.534,-8.533zm-8.533,123.341l-40.167,-12.049c-3.012,-0.905 -6.263,-0.077 -8.482,2.142c-2.227,2.227 -3.046,5.478 -2.142,8.491l12.066,40.209l-183.142,0l0,-145.067l221.867,0l0,106.274z"/>
   </g>
  </g>
  <g id="svg_31"/>
  <g id="svg_32"/>
  <g id="svg_33"/>
  <g id="svg_34"/>
  <g id="svg_35"/>
  <g id="svg_36"/>
  <g id="svg_37"/>
  <g id="svg_38"/>
  <g id="svg_39"/>
  <g id="svg_40"/>
  <g id="svg_41"/>
  <g id="svg_42"/>
  <g id="svg_43"/>
  <g id="svg_44"/>
  <g id="svg_45"/>
 </g>
</svg>