<?xml version="1.0" encoding="UTF-8" standalone="no"?>
<!DOCTYPE svg PUBLIC "-//W3C//DTD SVG 1.1//EN" "http://www.w3.org/Graphics/SVG/1.1/DTD/svg11.dtd">
<svg version="1.1" xmlns="http://www.w3.org/2000/svg" xmlns:xlink="http://www.w3.org/1999/xlink" preserveAspectRatio="xMidYMid meet" viewBox="0 0 640 640" width="640" height="640"><defs><path d="M42.68 10.67C19.15 10.67 0 29.81 0 53.34C0 88.54 0 370.13 0 405.33C0 411.22 4.78 416 10.67 416C72.53 416 567.47 416 629.33 416C635.22 416 640 411.22 640 405.33C640 370.13 640 88.54 640 53.34C640 29.81 620.85 10.67 597.32 10.67C486.39 10.67 98.14 10.67 42.68 10.67ZM21.33 394.67C21.33 189.87 21.33 76.1 21.33 53.34C21.33 41.57 30.91 32 42.68 32C98.14 32 541.86 32 597.32 32C609.09 32 618.67 41.57 618.67 53.34C618.67 76.1 618.67 189.87 618.67 394.67L21.33 394.67Z" id="i5IqsY0tFC"></path><path d="M10.67 394.67C4.78 394.67 0 399.45 0 405.33C0 410.66 0 453.32 0 458.66C0 482.19 19.15 501.33 42.68 501.33C98.14 501.33 541.86 501.33 597.32 501.33C620.85 501.33 640 482.19 640 458.66C640 453.32 640 410.66 640 405.33C640 399.45 635.22 394.67 629.33 394.67C505.6 394.67 72.53 394.67 10.67 394.67ZM597.32 480C541.86 480 98.14 480 42.68 480C30.91 480 21.33 470.43 21.33 458.66C21.33 455.81 21.33 441.59 21.33 416L618.67 416L618.67 458.66C612.28 472.89 605.17 480 597.32 480Z" id="aSG4xDtKO"></path><path d="M288 437.33C282.11 437.33 277.33 442.11 277.33 448C277.33 453.89 282.11 458.67 288 458.67C294.4 458.67 345.6 458.67 352 458.67C357.89 458.67 362.67 453.89 362.67 448C362.67 442.11 357.89 437.33 352 437.33C339.2 437.33 294.4 437.33 288 437.33Z" id="b3FfXWNegK"></path><path d="M53.33 53.33C47.45 53.33 42.67 58.11 42.67 64C42.67 98.13 42.67 371.2 42.67 405.33C42.67 411.22 47.45 416 53.33 416C106.67 416 533.33 416 586.67 416C592.55 416 597.33 411.22 597.33 405.33C597.33 371.2 597.33 98.13 597.33 64C597.33 58.11 592.55 53.33 586.67 53.33C480 53.33 106.67 53.33 53.33 53.33ZM64 394.67L64 74.67L576 74.67L576 394.67L64 394.67Z" id="a4xRp64ad"></path><path d="M181.33 565.33C163.69 565.33 149.33 579.69 149.33 597.33C149.33 614.98 163.69 629.33 181.33 629.33C209.07 629.33 430.93 629.33 458.67 629.33C476.31 629.33 490.67 614.98 490.67 597.33C490.67 579.69 476.31 565.33 458.67 565.33C403.2 565.33 209.07 565.33 181.33 565.33ZM181.33 608C175.45 608 170.67 603.21 170.67 597.33C170.67 591.46 175.45 586.67 181.33 586.67C209.07 586.67 430.93 586.67 458.67 586.67C464.55 586.67 469.33 591.46 469.33 597.33C469.33 603.21 464.56 608 458.67 608C403.2 608 209.07 608 181.33 608Z" id="d10xwxOEft"></path><path d="M384 490.67C384 484.78 379.22 480 373.33 480C362.67 480 277.33 480 266.67 480C260.78 480 256 484.78 256 490.67C256 540.21 238.06 565.33 202.67 565.33C196.78 565.33 192 570.11 192 576C192 581.89 196.78 586.67 202.67 586.67C226.13 586.67 413.87 586.67 437.33 586.67C443.22 586.67 448 581.89 448 576C448 570.11 443.22 565.33 437.33 565.33C401.94 565.33 384 540.21 384 490.67ZM277.05 501.33C285.64 501.33 354.37 501.33 362.97 501.33C364.51 529.12 372.25 550.79 385.39 565.33C376.67 565.33 333.08 565.33 254.62 565.33C268.53 541.19 276.01 519.86 277.05 501.33Z" id="a90i7VWmp"></path><path d="M483.95 299.2C492.54 290.61 497.32 285.83 498.27 284.88C500.93 282.22 502 278.36 501.08 274.72C500.16 271.08 497.4 268.2 493.8 267.12C483.14 263.92 397.8 238.32 387.14 235.12C383.37 233.98 379.31 235.02 376.53 237.79C373.75 240.57 372.73 244.64 373.86 248.4C377.06 259.06 402.66 344.39 405.86 355.06C406.93 358.67 409.82 361.43 413.46 362.35C417.09 363.24 420.96 362.2 423.62 359.54C424.62 358.53 429.65 353.5 438.7 344.45C454.15 359.9 462.73 368.49 464.45 370.21C466.44 372.21 469.16 373.33 471.99 373.33C474.82 373.33 477.54 372.21 479.53 370.21C482.55 367.19 506.68 343.05 509.7 340.03C513.87 335.86 513.87 329.12 509.7 324.95C506.26 321.52 497.68 312.93 483.95 299.2ZM448.54 324.13C445.82 321.41 442.26 320.05 438.7 320.05C435.13 320.05 431.56 321.42 428.85 324.12C428.34 324.63 425.77 327.2 421.15 331.82L399.98 261.24L470.56 282.41C465.61 287.36 462.85 290.12 462.3 290.67C460.03 292.95 458.78 295.98 458.78 299.2C458.78 302.43 460.04 305.48 462.33 307.74C463.97 309.39 472.22 317.64 487.07 332.49L471.99 347.58C457.92 333.51 450.11 325.69 448.54 324.13Z" id="cabZG9xgW"></path><path d="M149.33 96C143.45 96 138.67 100.78 138.67 106.67C138.67 112 138.67 154.67 138.67 160C138.67 165.89 143.45 170.67 149.33 170.67C179.2 170.67 418.13 170.67 448 170.67C453.89 170.67 458.67 165.89 458.67 160C458.67 154.67 458.67 112 458.67 106.67C458.67 100.78 453.89 96 448 96C388.27 96 179.2 96 149.33 96ZM160 149.33L160 117.33L437.33 117.33L437.33 149.33L160 149.33Z" id="b1f672UVit"></path><path d="M192 213.33C186.11 213.33 181.33 218.11 181.33 224C181.33 228.27 181.33 262.4 181.33 266.67C181.33 272.55 186.11 277.33 192 277.33C200.53 277.33 268.8 277.33 277.33 277.33C283.22 277.33 288 272.55 288 266.67C288 262.4 288 228.27 288 224C288 218.11 283.22 213.33 277.33 213.33C260.27 213.33 200.53 213.33 192 213.33ZM202.67 256L202.67 234.67L266.67 234.67L266.67 256L202.67 256Z" id="a1gND3AlO9"></path><path d="M149.33 96C143.45 96 138.67 100.78 138.67 106.67C138.67 126.93 138.67 289.07 138.67 309.33C138.67 315.22 143.45 320 149.33 320C174.73 320 377.87 320 403.27 320C406.65 320 409.81 318.41 411.82 315.7C413.84 312.99 414.46 309.49 413.48 306.26C412.58 303.26 408.08 288.25 399.98 261.24C426.96 269.33 441.94 273.83 444.94 274.73C448.17 275.7 451.67 275.08 454.37 273.07C457.08 271.06 458.67 267.88 458.67 264.51C458.67 248.73 458.67 122.45 458.67 106.67C458.67 100.78 453.89 96 448 96C388.27 96 179.2 96 149.33 96ZM387.13 235.12C383.36 233.98 379.3 235.02 376.52 237.79C373.74 240.58 372.72 244.64 373.85 248.41C374.85 251.76 379.88 268.51 388.93 298.67L160 298.67L160 117.33L437.33 117.33L437.33 250.18C407.21 241.14 390.47 236.12 387.13 235.12Z" id="e4sMYc8MJ"></path></defs><g><g><g><use xlink:href="#i5IqsY0tFC" opacity="1" fill="#ffffff" fill-opacity="1"></use><g><use xlink:href="#i5IqsY0tFC" opacity="1" fill-opacity="0" stroke="#000000" stroke-width="1" stroke-opacity="0"></use></g></g><g><use xlink:href="#aSG4xDtKO" opacity="1" fill="#ffffff" fill-opacity="1"></use><g><use xlink:href="#aSG4xDtKO" opacity="1" fill-opacity="0" stroke="#000000" stroke-width="1" stroke-opacity="0"></use></g></g><g><use xlink:href="#b3FfXWNegK" opacity="1" fill="#ffffff" fill-opacity="1"></use><g><use xlink:href="#b3FfXWNegK" opacity="1" fill-opacity="0" stroke="#000000" stroke-width="1" stroke-opacity="0"></use></g></g><g><use xlink:href="#a4xRp64ad" opacity="1" fill="#ffffff" fill-opacity="1"></use><g><use xlink:href="#a4xRp64ad" opacity="1" fill-opacity="0" stroke="#000000" stroke-width="1" stroke-opacity="0"></use></g></g><g><use xlink:href="#d10xwxOEft" opacity="1" fill="#ffffff" fill-opacity="1"></use><g><use xlink:href="#d10xwxOEft" opacity="1" fill-opacity="0" stroke="#000000" stroke-width="1" stroke-opacity="0"></use></g></g><g><use xlink:href="#a90i7VWmp" opacity="1" fill="#ffffff" fill-opacity="1"></use><g><use xlink:href="#a90i7VWmp" opacity="1" fill-opacity="0" stroke="#000000" stroke-width="1" stroke-opacity="0"></use></g></g><g><use xlink:href="#cabZG9xgW" opacity="1" fill="#ffffff" fill-opacity="1"></use><g><use xlink:href="#cabZG9xgW" opacity="1" fill-opacity="0" stroke="#000000" stroke-width="1" stroke-opacity="0"></use></g></g><g><use xlink:href="#b1f672UVit" opacity="1" fill="#ffffff" fill-opacity="1"></use><g><use xlink:href="#b1f672UVit" opacity="1" fill-opacity="0" stroke="#000000" stroke-width="1" stroke-opacity="0"></use></g></g><g><use xlink:href="#a1gND3AlO9" opacity="1" fill="#ffffff" fill-opacity="1"></use><g><use xlink:href="#a1gND3AlO9" opacity="1" fill-opacity="0" stroke="#000000" stroke-width="1" stroke-opacity="0"></use></g></g><g><use xlink:href="#e4sMYc8MJ" opacity="1" fill="#ffffff" fill-opacity="1"></use><g><use xlink:href="#e4sMYc8MJ" opacity="1" fill-opacity="0" stroke="#000000" stroke-width="1" stroke-opacity="0"></use></g></g></g></g></svg>