<?xml version="1.0" encoding="UTF-8"?>
<svg width="485px" height="113px" viewBox="0 0 485 113" version="1.1" xmlns="http://www.w3.org/2000/svg" xmlns:xlink="http://www.w3.org/1999/xlink">
    <!-- Generator: Sketch 49 (51002) - http://www.bohemiancoding.com/sketch -->
    <title>newwagerrlogoBlackredR</title>
    <desc>Created with Sketch.</desc>
    <defs></defs>
    <g id="logo" stroke="none" stroke-width="1" fill="none" fill-rule="evenodd">
        <g id="newwagerrlogoBlackredR" fill-rule="nonzero">
            <path d="M184.1,3.8 C182.7,1.4 180.4,0.2 177.5,0.2 C159.3,0.3 141.2,0.4 123,0.2 C118.4,0.2 115.7,2 113.5,5.8 C108.9,14.1 104.1,22.2 99.3,30.5 C97.3,34 95.4,37.5 93.4,41 C93.3,41.3 93,41.5 92.8,41.7 C92.6,41.5 92.3,41.3 92.2,41 C90.2,37.5 88.3,34 86.3,30.5 C81.6,22.3 76.7,14.1 72.1,5.8 C70,1.9 67.2,0.1 62.6,0.2 C44.4,0.4 26.3,0.2 8.1,0.2 C5.2,0.2 2.9,1.4 1.5,3.8 C0.1,6.3 0.3,8.9 1.8,11.4 C3.9,14.9 5.9,18.4 7.9,21.9 C13.5,31.6 19.1,41.4 24.7,51.1 C30.6,61.3 36.5,71.6 42.5,81.8 C47.8,90.9 53.1,100.1 58.4,109.2 C59.9,111.7 62.1,113 65,112.8 C67.8,112.7 69.8,111.2 71.2,108.8 C72.6,106.3 74,103.8 75.4,101.4 C80.1,93.2 84.8,85 89.5,76.9 C90.6,75.1 91.7,73.2 92.8,71.2 C94,73.2 95.1,75.1 96.1,76.9 C100.8,85.1 105.5,93.2 110.2,101.4 C111.6,103.9 113.1,106.3 114.4,108.8 C115.8,111.3 117.8,112.7 120.6,112.8 C123.5,112.9 125.7,111.7 127.2,109.2 C132.5,100.1 137.8,90.9 143.1,81.8 C149,71.6 154.9,61.4 160.9,51.1 C166.5,41.4 172.1,31.6 177.7,21.9 C179.7,18.4 181.7,14.8 183.8,11.4 C185.3,8.9 185.5,6.3 184.1,3.8 Z M84,57.9 C78.7,67.3 73.3,76.6 67.9,85.9 C66.9,87.7 65.8,89.4 64.5,91.6 C49.7,65.8 35,40.3 20.2,14.6 C21,14.5 21.6,14.5 22.2,14.5 C34.3,14.5 46.4,14.5 58.5,14.4 C59.8,14.4 60.6,14.8 61.3,16 C67.8,27.3 74.3,38.6 80.8,49.9 C81.9,51.8 83.1,53.6 84,55.5 C84.3,56.1 84.4,57.3 84,57.9 Z M121,91.5 C119.7,89.4 118.6,87.6 117.6,85.8 C112.2,76.5 106.8,67.2 101.5,57.8 C101.1,57.2 101.2,56 101.5,55.4 C102.4,53.5 103.6,51.7 104.7,49.8 C111.2,38.5 117.7,27.2 124.2,15.9 C124.9,14.7 125.6,14.3 127,14.3 C139.1,14.4 151.2,14.4 163.3,14.4 C163.9,14.4 164.4,14.5 165.3,14.5 C150.5,40.3 135.8,65.8 121,91.5 Z" id="Shape" fill="#FFFFFF"></path>
            <g id="Group" transform="translate(144.000000, 22.000000)" fill="#FFFFFF">
                <path d="M49.4,1.7 L41.6,1.7 L0.1,73.6 L20.8,73.6 L25.9,60.9 L53.4,60.9 L58.6,73.6 L79.8,73.6 L49.4,1.7 Z M31.7,45.6 L39.8,25.3 L47.8,45.6 L31.7,45.6 Z" id="Shape"></path>
                <path d="M112.3,75 C106.7,75 101.6,74.1 96.9,72.3 C92.2,70.5 88.1,68 84.6,64.7 C81.1,61.4 78.4,57.5 76.4,53 C74.4,48.5 73.4,43.5 73.4,38.1 L73.4,37.9 C73.4,32.7 74.4,27.9 76.3,23.4 C78.2,18.9 80.9,14.9 84.3,11.6 C87.7,8.2 91.7,5.6 96.4,3.7 C101.1,1.8 106.2,0.8 111.7,0.8 C118,0.8 123.5,1.7 128.1,3.6 C132.7,5.4 136.9,8 140.7,11.2 L129.1,25.2 C126.5,23 123.9,21.4 121.2,20.2 C118.5,19 115.4,18.5 111.9,18.5 C109.3,18.5 106.9,19 104.7,20 C102.5,21 100.6,22.4 98.9,24.2 C97.3,26 96,28 95,30.4 C94,32.8 93.6,35.3 93.6,38 L93.6,38.2 C93.6,41.1 94.1,43.7 95,46.2 C96,48.6 97.3,50.7 99,52.5 C100.7,54.2 102.8,55.6 105.1,56.6 C107.5,57.6 110.1,58.1 112.9,58.1 C117.5,58.1 121.4,57.1 124.4,55.1 L124.4,46.4 L110.3,46.4 L110.3,31.9 L143.1,31.9 L143.1,64 C139.3,67.1 134.8,69.7 129.6,71.8 C124.7,74 118.8,75 112.3,75 Z" id="Shape"></path>
                <polygon id="Shape" points="148.8 2.2 206.1 2.2 206.1 19 168.3 19 168.3 29.8 202.5 29.8 202.5 45.4 168.3 45.4 168.3 56.7 206.6 56.7 206.6 73.5 148.8 73.5"></polygon>
                <path d="M213.4,2.2 L247.1,2.2 C252.6,2.2 257.3,2.9 261.1,4.2 C264.9,5.6 268,7.5 270.4,9.9 C274.6,14 276.7,19.5 276.7,26.5 L276.7,26.7 C276.7,32.2 275.4,36.8 272.7,40.4 C270,44 266.5,46.8 262,48.7 L279,73.6 L256.2,73.6 L241.8,52 L241.6,52 L233.1,52 L233.1,73.6 L213.3,73.6 L213.3,2.2 L213.4,2.2 Z M246.2,36.5 C249.6,36.5 252.2,35.7 254,34.2 C255.8,32.7 256.8,30.6 256.8,28 L256.8,27.8 C256.8,24.9 255.8,22.8 253.9,21.4 C252,20 249.4,19.3 246.1,19.3 L233.2,19.3 L233.2,36.4 L246.2,36.4 L246.2,36.5 Z" id="Shape"></path>
            </g>
            <path d="M468,71.7 C472.5,69.8 476.1,67 478.7,63.4 C481.3,59.8 482.7,55.2 482.7,49.7 L482.7,49.5 C482.7,42.5 480.6,37 476.4,32.9 C474,30.5 470.9,28.6 467.1,27.2 C463.3,25.8 458.6,25.2 453.1,25.2 L419.4,25.2 L419.4,29.2 C421.3,30.3 423,31.5 424.4,33 C428.6,37.1 430.7,42.6 430.7,49.6 L430.7,49.8 C430.7,55.3 429.4,59.9 426.7,63.5 C424.7,66.2 422.3,68.3 419.3,70.1 L419.3,76.7 L433,96.7 L439.1,96.7 L439.1,74.9 L447.8,74.9 L462.2,96.5 L485,96.5 L468,71.7 Z M462.8,51 C462.8,53.6 461.9,55.6 460,57.2 C458.2,58.7 455.5,59.5 452.2,59.5 L439.2,59.5 L439.2,42.3 L452.1,42.3 C455.4,42.3 458,43 460,44.4 C461.9,45.8 462.9,47.9 462.9,50.8 L462.9,51 L462.8,51 Z" id="Shape" fill="#000000"></path>
        </g>
    </g>
</svg>