<?xml version="1.0" encoding="utf-8"?>
<!-- Generator: Adobe Illustrator 24.2.1, SVG Export Plug-In . SVG Version: 6.00 Build 0)  -->
<svg version="1.1" id="Layer_1" xmlns="http://www.w3.org/2000/svg" xmlns:xlink="http://www.w3.org/1999/xlink" x="0px" y="0px"
	 viewBox="0 0 484 150" style="enable-background:new 0 0 484 150;" xml:space="preserve">
<style type="text/css">
	.st0{display:none;fill:#FFFFFF;}
	.st1{fill-rule:evenodd;clip-rule:evenodd;fill:#FFFFFF;}
	.st2{fill:#FFFFFF;}
</style>
<ellipse class="st0" cx="75.5" cy="-124" rx="51.5" ry="50.1"/>
<polygon class="st1" points="35.5,65 48.6,65 62.5,93.3 49.4,93.3 "/>
<polygon class="st1" points="62.3,57.7 75.3,57.7 62.5,93.3 49.4,93.3 "/>
<polygon class="st1" points="62.3,57.7 75.3,57.7 90.2,93.3 77.1,93.3 "/>
<polygon class="st1" points="90.2,93.3 77.1,93.3 92.4,49.9 105.3,49.9 "/>
<path class="st2" d="M69.9,130.5c-32.7,0-59.2-26.6-59.2-59.2S37.3,12,69.9,12s59.2,26.6,59.2,59.2S102.6,130.5,69.9,130.5z
	 M69.9,23c-26.6,0-48.2,21.6-48.2,48.2s21.6,48.2,48.2,48.2s48.2-21.6,48.2-48.2C118.2,44.6,96.5,23,69.9,23z"/>
<g>
	<path class="st2" d="M219.6,46l-14.9,46.8h-13l-9.3-21l-9.1,21h-13L145.1,46H162l7.1,24.6l11.1-24.4h4.4l11.7,24.7l7-24.8L219.6,46
		L219.6,46z"/>
	<path class="st2" d="M273.6,46v46.8h-12.5l-1.4-3.3c-3.8,3.1-8.7,4.9-14.1,4.9c-14.3,0-24.6-10.4-24.6-25
		c0-14.5,10.2-24.8,24.6-24.8c5.5,0,10.4,1.8,14.3,5l1.6-3.6L273.6,46z M258.2,69.4c0-6.1-4.4-10.6-10.5-10.6s-10.5,4.6-10.5,10.6
		c0,6.1,4.4,10.7,10.5,10.7S258.2,75.5,258.2,69.4z"/>
	<path class="st2" d="M332.2,46v41.6c0,14.7-9.6,23.8-25.1,23.8c-13.3,0-22.6-6.7-24.7-17.8H298c1.1,3.1,5.1,4.8,9,4.8
		c5.4,0,9.7-3.4,9.7-9V88c-3.5,2.2-7.7,3.5-12.2,3.5c-13.4,0-23.4-10-23.4-23.5c0-13.3,10-23.5,23.4-23.5c5.7,0,10.8,2,14.8,5.4
		l2-3.9L332.2,46z M307.1,78.3c5.8,0,10-4.3,10-10.3c0-5.9-4.2-10.2-10-10.2s-10,4.3-10,10.2C297.1,74,301.3,78.3,307.1,78.3
		L307.1,78.3z"/>
	<path class="st2" d="M390.6,69c0,1.4-0.1,2.8-0.3,4.3h-34.8c1.1,5.4,4.5,8.1,9.6,8.1c3.8,0,6.9-1.6,8.5-4.4h16
		c-3.3,10.7-12.8,17.4-24.5,17.4c-14.6,0-25.4-10.7-25.4-25c0-14.4,10.7-24.9,25.4-24.9C380.1,44.5,390.6,55.2,390.6,69L390.6,69z
		 M355.8,64.3h18.9c-1.4-4.7-4.8-7.2-9.7-7.2C360.4,57.1,357.1,59.7,355.8,64.3z"/>
	<path class="st2" d="M428.4,45.8v14.8h-6.3c-5.7,0-8.1,2.5-8.1,8.5v23.8h-16.1V46h10.8l2.5,5.2c3.3-3.8,7.3-5.4,12.9-5.4H428.4z"/>
	<path class="st2" d="M465,45.8v14.8h-6.3c-5.7,0-8.1,2.5-8.1,8.5v23.8h-16.1V46h10.8l2.5,5.2c3.3-3.8,7.3-5.4,12.9-5.4H465z"/>
</g>
</svg>
