<?xml version="1.0" encoding="utf-8"?>
<!-- Generator: Adobe Illustrator 24.2.1, SVG Export Plug-In . SVG Version: 6.00 Build 0)  -->
<svg version="1.1" id="Layer_1" xmlns="http://www.w3.org/2000/svg" xmlns:xlink="http://www.w3.org/1999/xlink" x="0px" y="0px"
	 viewBox="0 0 172 150" style="enable-background:new 0 0 172 150;" xml:space="preserve">
<style type="text/css">
	.st0{display:none;fill:#FFFFFF;}
	.st1{fill-rule:evenodd;clip-rule:evenodd;fill:#FFFFFF;}
	.st2{fill:#FFFFFF;}
</style>
<ellipse class="st0" cx="75.5" cy="-124" rx="51.5" ry="50.1"/>
<polygon class="st1" points="53.5,67 66.6,67 80.5,95.3 67.4,95.3 "/>
<polygon class="st1" points="80.3,59.7 93.3,59.7 80.5,95.3 67.4,95.3 "/>
<polygon class="st1" points="80.3,59.7 93.3,59.7 108.2,95.3 95.1,95.3 "/>
<polygon class="st1" points="108.2,95.3 95.1,95.3 110.4,51.9 123.3,51.9 "/>
<path class="st2" d="M87.9,132.5c-32.7,0-59.2-26.6-59.2-59.2S55.3,14,87.9,14s59.2,26.6,59.2,59.2S120.6,132.5,87.9,132.5z
	 M87.9,25c-26.6,0-48.2,21.6-48.2,48.2s21.6,48.2,48.2,48.2s48.2-21.6,48.2-48.2C136.2,46.6,114.5,25,87.9,25z"/>
</svg>
